<svg width="35" height="35" viewBox="0 0 35 35" fill="none" xmlns="http://www.w3.org/2000/svg">
<g clip-path="url(#clip0_84_36)">
<rect x="0.28" y="0.28" width="34.44" height="34.44" stroke="white" stroke-width="0.56"/>
<path d="M15.3725 19.1151L14.988 18.5768C14.3728 19.0895 13.7268 19.5253 13.05 19.8841C12.3733 20.2328 11.6709 20.4994 10.9428 20.684C10.2046 20.8583 9.45602 20.9454 8.69723 20.9454C7.41549 20.9454 6.28244 20.7045 5.29806 20.2225C4.30343 19.7303 3.52926 19.0587 2.97555 18.2076C2.41159 17.3463 2.1296 16.3619 2.1296 15.2545C2.1296 14.0856 2.42184 13.1371 3.00631 12.409C3.59079 11.6708 4.33932 11.0607 5.25192 10.5787C6.16452 10.0865 7.12326 9.63024 8.12814 9.20983C8.87667 8.89196 9.60983 8.5587 10.3276 8.21007C11.0454 7.86144 11.6965 7.46154 12.281 7.01036C12.8552 6.54894 13.3115 6.00548 13.6499 5.37999C13.9882 4.75451 14.1574 4.00084 14.1574 3.11901C14.1574 2.02184 13.8857 1.05797 13.3423 0.227405C12.7988 -0.603162 12.04 -1.24916 11.0659 -1.71058C10.0815 -2.17201 8.94845 -2.40272 7.66671 -2.40272C6.81564 -2.40272 5.9902 -2.29506 5.19039 -2.07972C4.38034 -1.87465 3.62155 -1.56703 2.91403 -1.15687L3.26779 -0.557019C3.97531 -0.946667 4.70846 -1.24403 5.46725 -1.44911C6.22604 -1.65419 6.98483 -1.75673 7.74362 -1.75673C8.86129 -1.75673 9.8508 -1.55165 10.7121 -1.14149C11.5632 -0.731335 12.2348 -0.157117 12.727 0.581165C13.2192 1.30919 13.4653 2.15514 13.4653 3.11901C13.4653 4.15465 13.1936 5.00573 12.6501 5.67223C12.0964 6.33873 11.3889 6.9027 10.5276 7.36412C9.65597 7.8153 8.73825 8.24596 7.77438 8.65612C6.99508 8.98424 6.23117 9.33287 5.48263 9.70202C4.7341 10.0712 4.05734 10.5018 3.45236 10.994C2.83712 11.4759 2.35006 12.0604 1.99118 12.7474C1.62204 13.4242 1.43746 14.2496 1.43746 15.2237C1.43746 16.4645 1.74508 17.5668 2.36032 18.5306C2.97555 19.4842 3.82663 20.2328 4.91354 20.7762C5.9902 21.3197 7.23092 21.5914 8.63571 21.5914C9.84567 21.5914 11.03 21.3812 12.1887 20.9608C13.3371 20.5301 14.3984 19.9149 15.3725 19.1151Z" fill="white"/>
<path d="M32.3383 -3.4704C31.4359 -4.3454 30.3923 -5.01076 29.2074 -5.46649C28.0225 -5.93133 26.7556 -6.16376 25.4067 -6.16376C23.9757 -6.16376 22.654 -5.91311 21.4418 -5.4118C20.2387 -4.9105 19.1905 -4.20412 18.2973 -3.29266C17.4132 -2.3812 16.725 -1.30568 16.2328 -0.0660992C15.7406 1.16437 15.4945 2.51333 15.4945 3.98078C15.4945 5.42088 15.7315 6.75161 16.2055 7.97296C16.6794 9.19432 17.3402 10.2562 18.1879 11.1585C19.0447 12.0609 20.0473 12.7627 21.1957 13.264C22.3533 13.7653 23.6156 14.0159 24.9828 14.0159C26.3227 14.0159 27.5714 13.7744 28.7289 13.2913C29.8956 12.8083 30.9164 12.1338 31.7914 11.2679C32.6755 10.3929 33.3637 9.3675 33.8559 8.19171C34.3481 7.00682 34.5942 5.7171 34.5942 4.32257H25.5707V3.74835H35.2094L35.2231 3.92609C35.2231 5.48468 34.9724 6.91567 34.4711 8.21906C33.9789 9.51333 33.2817 10.639 32.3793 11.596C31.477 12.5439 30.406 13.2822 29.1664 13.8109C27.9359 14.3304 26.5824 14.5902 25.1059 14.5902C23.6293 14.5902 22.2667 14.3304 21.018 13.8109C19.7693 13.2822 18.6846 12.5439 17.7641 11.596C16.8526 10.639 16.1417 9.51789 15.6313 8.23273C15.13 6.93846 14.8793 5.5257 14.8793 3.99445C14.8793 2.44497 15.1391 1.01854 15.6586 -0.284849C16.1781 -1.59735 16.9119 -2.73212 17.8598 -3.68915C18.8077 -4.65529 19.9242 -5.40269 21.2094 -5.93133C22.4945 -6.46909 23.8982 -6.73798 25.4203 -6.73798C26.8513 -6.73798 28.1957 -6.49188 29.4535 -5.99969C30.7113 -5.51662 31.8233 -4.81024 32.7895 -3.88055L32.3383 -3.4704Z" fill="white"/>
<path d="M34.6225 35.1451L34.2379 34.6068C33.6227 35.1195 32.9767 35.5553 32.3 35.9141C31.6232 36.2628 30.9208 36.5294 30.1928 36.7139C29.4545 36.8883 28.706 36.9754 27.9472 36.9754C26.6654 36.9754 25.5324 36.7345 24.548 36.2525C23.5534 35.7603 22.7792 35.0887 22.2255 34.2376C21.6615 33.3763 21.3795 32.3919 21.3795 31.2845C21.3795 30.1156 21.6718 29.1671 22.2563 28.439C22.8407 27.7008 23.5893 27.0907 24.5019 26.6087C25.4145 26.1165 26.3732 25.6602 27.3781 25.2398C28.1266 24.922 28.8598 24.5887 29.5775 24.2401C30.2953 23.8914 30.9464 23.4915 31.5309 23.0404C32.1051 22.5789 32.5614 22.0355 32.8998 21.41C33.2382 20.7845 33.4074 20.0308 33.4074 19.149C33.4074 18.0518 33.1356 17.088 32.5922 16.2574C32.0487 15.4268 31.2899 14.7808 30.3158 14.3194C29.3314 13.858 28.1984 13.6273 26.9167 13.6273C26.0656 13.6273 25.2401 13.7349 24.4403 13.9503C23.6303 14.1554 22.8715 14.463 22.164 14.8731L22.5177 15.473C23.2252 15.0833 23.9584 14.786 24.7172 14.5809C25.476 14.3758 26.2348 14.2733 26.9936 14.2733C28.1112 14.2733 29.1007 14.4783 29.9621 14.8885C30.8131 15.2987 31.4848 15.8729 31.977 16.6112C32.4691 17.3392 32.7152 18.1851 32.7152 19.149C32.7152 20.1846 32.4435 21.0357 31.9001 21.7022C31.3463 22.3687 30.6388 22.9327 29.7775 23.3941C28.9059 23.8453 27.9882 24.276 27.0243 24.6861C26.245 25.0142 25.4811 25.3629 24.7326 25.732C23.984 26.1012 23.3073 26.5318 22.7023 27.024C22.0871 27.5059 21.6 28.0904 21.2411 28.7774C20.872 29.4542 20.6874 30.2796 20.6874 31.2537C20.6874 32.4945 20.995 33.5968 21.6103 34.5606C22.2255 35.5142 23.0766 36.2628 24.1635 36.8062C25.2401 37.3497 26.4809 37.6214 27.8856 37.6214C29.0956 37.6214 30.2799 37.4112 31.4386 36.9908C32.5871 36.5601 33.6483 35.9449 34.6225 35.1451Z" fill="white"/>
<path d="M2.36401 24.5996C3.26635 23.7246 4.30997 23.0592 5.49487 22.6035C6.67976 22.1387 7.94669 21.9062 9.29565 21.9062C10.7266 21.9062 12.0483 22.1569 13.2605 22.6582C14.4636 23.1595 15.5118 23.8659 16.405 24.7773C17.2891 25.6888 17.9773 26.7643 18.4695 28.0039C18.9617 29.2344 19.2078 30.5833 19.2078 32.0508C19.2078 33.4909 18.9708 34.8216 18.4968 36.043C18.0229 37.2643 17.3621 38.3262 16.5144 39.2285C15.6576 40.1309 14.655 40.8327 13.5066 41.334C12.349 41.8353 11.0867 42.0859 9.71948 42.0859C8.37964 42.0859 7.13094 41.8444 5.97338 41.3613C4.80672 40.8783 3.78588 40.2038 2.91088 39.3379C2.02677 38.4629 1.33862 37.4375 0.846431 36.2617C0.354243 35.0768 0.10815 33.7871 0.10815 32.3926H9.13159V31.8184H-0.507085L-0.520757 31.9961C-0.520757 33.5547 -0.270106 34.9857 0.231196 36.2891C0.723384 37.5833 1.42065 38.709 2.32299 39.666C3.22534 40.6139 4.2963 41.3522 5.53588 41.8809C6.76635 42.4004 8.11987 42.6602 9.59643 42.6602C11.073 42.6602 12.4356 42.4004 13.6843 41.8809C14.933 41.3522 16.0177 40.6139 16.9382 39.666C17.8497 38.709 18.5606 37.5879 19.071 36.3027C19.5723 35.0085 19.823 33.5957 19.823 32.0645C19.823 30.515 19.5632 29.0885 19.0437 27.7852C18.5242 26.4727 17.7904 25.3379 16.8425 24.3809C15.8946 23.4147 14.7781 22.6673 13.4929 22.1387C12.2078 21.6009 10.8041 21.332 9.28198 21.332C7.85099 21.332 6.50659 21.5781 5.24878 22.0703C3.99096 22.5534 2.87898 23.2598 1.91284 24.1895L2.36401 24.5996Z" fill="white"/>
<path d="M14.91 18.97C19.11 16.555 21.315 15.61 23.31 14.665" stroke="white" stroke-width="0.63"/>
</g>
<defs>
<clipPath id="clip0_84_36">
<rect width="35" height="35" fill="white"/>
</clipPath>
</defs>
</svg>
