<svg width="250" height="199" viewBox="0 0 250 199" fill="none" xmlns="http://www.w3.org/2000/svg">
<g clip-path="url(#clip0_62_55)">
<rect x="51.2006" y="1.2" width="147.6" height="147.6" stroke="white" stroke-width="2.4"/>
<path d="M115.883 82.0647L114.235 79.7576C111.598 81.9549 108.83 83.8225 105.929 85.3606C103.029 86.8548 100.019 87.9973 96.8986 88.7884C93.7345 89.5354 90.5265 89.909 87.2745 89.909C81.7814 89.909 76.9254 88.8763 72.7067 86.8108C68.444 84.7014 65.1261 81.823 62.753 78.1756C60.3361 74.4842 59.1276 70.2654 59.1276 65.5193C59.1276 60.5095 60.38 56.4446 62.8849 53.3245C65.3898 50.1604 68.5978 47.5457 72.5089 45.4803C76.42 43.3709 80.5289 41.4153 84.8356 39.6136C88.0436 38.2512 91.1857 36.823 94.2618 35.3289C97.338 33.8347 100.129 32.1209 102.633 30.1873C105.094 28.2097 107.05 25.8806 108.5 23.2C109.95 20.5193 110.675 17.2893 110.675 13.51C110.675 8.80788 109.511 4.67702 107.182 1.11745C104.853 -2.44212 101.601 -5.21067 97.4259 -7.18821C93.2072 -9.16575 88.3512 -10.1545 82.858 -10.1545C79.2106 -10.1545 75.673 -9.6931 72.2452 -8.77024C68.7736 -7.89134 65.5216 -6.57298 62.4894 -4.81517L64.0055 -2.24436C67.0377 -3.91429 70.1798 -5.1887 73.4318 -6.06761C76.6837 -6.94651 79.9357 -7.38597 83.1876 -7.38597C87.9777 -7.38597 92.2184 -6.50706 95.9098 -4.74925C99.5573 -2.99144 102.436 -0.530497 104.545 2.63357C106.654 5.75368 107.709 9.37917 107.709 13.51C107.709 17.9485 106.545 21.596 104.215 24.4524C101.842 27.3089 98.8102 29.7259 95.1188 31.7034C91.3834 33.637 87.4503 35.4827 83.3195 37.2405C79.9796 38.6468 76.7057 40.1409 73.4977 41.7229C70.2897 43.305 67.3893 45.1507 64.7965 47.26C62.1598 49.3255 60.0724 51.8303 58.5343 54.7747C56.9523 57.6751 56.1613 61.2127 56.1613 65.3875C56.1613 70.7049 57.4796 75.429 60.1163 79.5598C62.753 83.6468 66.4005 86.8548 71.0587 89.1839C75.673 91.513 80.9904 92.6775 87.0109 92.6775C92.1964 92.6775 97.2721 91.7766 102.238 89.9749C107.16 88.1292 111.708 85.4925 115.883 82.0647Z" fill="white"/>
<path d="M188.593 -16.4446C184.726 -20.1946 180.253 -23.0461 175.175 -24.9992C170.097 -26.9914 164.667 -27.9875 158.886 -27.9875C152.753 -27.9875 147.089 -26.9133 141.894 -24.7649C136.738 -22.6164 132.246 -19.5891 128.417 -15.6828C124.628 -11.7766 121.679 -7.16721 119.57 -1.85471C117.46 3.41872 116.406 9.19998 116.406 15.489C116.406 21.6609 117.421 27.364 119.453 32.5984C121.484 37.8328 124.316 42.3836 127.949 46.2508C131.621 50.1179 135.917 53.1258 140.839 55.2742C145.8 57.4226 151.21 58.4969 157.07 58.4969C162.812 58.4969 168.164 57.4617 173.125 55.3914C178.125 53.3211 182.5 50.4304 186.25 46.7195C190.039 42.9695 192.988 38.575 195.097 33.5359C197.207 28.4578 198.261 22.9304 198.261 16.9539H159.589V14.4929H200.898L200.957 15.2547C200.957 21.9344 199.882 28.0672 197.734 33.6531C195.625 39.2 192.636 44.0242 188.769 48.1258C184.902 52.1883 180.312 55.3523 175 57.618C169.726 59.8445 163.925 60.9578 157.597 60.9578C151.269 60.9578 145.429 59.8445 140.078 57.618C134.726 55.3523 130.078 52.1883 126.132 48.1258C122.226 44.0242 119.179 39.2195 116.992 33.7117C114.843 28.1648 113.769 22.1101 113.769 15.5476C113.769 8.90701 114.882 2.79372 117.109 -2.79221C119.335 -8.41721 122.48 -13.2805 126.542 -17.3821C130.605 -21.5227 135.39 -24.7258 140.898 -26.9914C146.406 -29.2961 152.421 -30.4485 158.945 -30.4485C165.078 -30.4485 170.839 -29.3938 176.23 -27.2844C181.621 -25.2141 186.386 -22.1867 190.527 -18.2024L188.593 -16.4446Z" fill="white"/>
<path d="M198.383 150.765L196.735 148.458C194.098 150.655 191.329 152.523 188.429 154.061C185.529 155.555 182.518 156.697 179.398 157.488C176.234 158.235 173.026 158.609 169.774 158.609C164.281 158.609 159.425 157.576 155.206 155.511C150.944 153.401 147.626 150.523 145.253 146.876C142.836 143.184 141.627 138.965 141.627 134.219C141.627 129.21 142.88 125.145 145.385 122.024C147.889 118.86 151.097 116.246 155.009 114.18C158.92 112.071 163.029 110.115 167.335 108.314C170.543 106.951 173.685 105.523 176.761 104.029C179.838 102.535 182.628 100.821 185.133 98.8873C187.594 96.9097 189.55 94.5806 191 91.9C192.45 89.2193 193.175 85.9893 193.175 82.21C193.175 77.5079 192.011 73.377 189.681 69.8174C187.352 66.2579 184.1 63.4893 179.926 61.5118C175.707 59.5342 170.851 58.5455 165.358 58.5455C161.71 58.5455 158.173 59.0069 154.745 59.9297C151.273 60.8086 148.021 62.127 144.989 63.8848L146.505 66.4556C149.537 64.7857 152.679 63.5113 155.931 62.6324C159.183 61.7535 162.435 61.314 165.687 61.314C170.477 61.314 174.718 62.1929 178.409 63.9507C182.057 65.7085 184.935 68.1695 187.045 71.3335C189.154 74.4537 190.209 78.0792 190.209 82.21C190.209 86.6485 189.044 90.296 186.715 93.1524C184.342 96.0088 181.31 98.4258 177.618 100.403C173.883 102.337 169.95 104.183 165.819 105.94C162.479 107.347 159.205 108.841 155.997 110.423C152.789 112.005 149.889 113.851 147.296 115.96C144.659 118.025 142.572 120.53 141.034 123.475C139.452 126.375 138.661 129.913 138.661 134.087C138.661 139.405 139.979 144.129 142.616 148.26C145.253 152.347 148.9 155.555 153.558 157.884C158.173 160.213 163.49 161.378 169.51 161.378C174.696 161.378 179.772 160.477 184.738 158.675C189.659 156.829 194.208 154.192 198.383 150.765Z" fill="white"/>
<path d="M60.1321 103.855C63.9993 100.105 68.4719 97.2539 73.55 95.3008C78.6282 93.3086 84.0579 92.3125 89.8391 92.3125C95.9719 92.3125 101.636 93.3867 106.831 95.5351C111.988 97.6836 116.48 100.711 120.308 104.617C124.097 108.523 127.046 113.133 129.156 118.445C131.265 123.719 132.32 129.5 132.32 135.789C132.32 141.961 131.304 147.664 129.273 152.898C127.241 158.133 124.409 162.684 120.777 166.551C117.105 170.418 112.808 173.426 107.886 175.574C102.925 177.723 97.5149 178.797 91.6555 178.797C85.9133 178.797 80.5618 177.762 75.6008 175.691C70.6008 173.621 66.2258 170.73 62.4758 167.02C58.6868 163.27 55.7375 158.875 53.6282 153.836C51.5188 148.758 50.4641 143.23 50.4641 137.254H89.136V134.793H47.8274L47.7688 135.555C47.7688 142.234 48.843 148.367 50.9915 153.953C53.1008 159.5 56.0891 164.324 59.9563 168.426C63.8235 172.488 68.4133 175.652 73.7258 177.918C78.9993 180.145 84.8 181.258 91.1282 181.258C97.4563 181.258 103.296 180.145 108.648 177.918C113.999 175.652 118.648 172.488 122.593 168.426C126.499 164.324 129.546 159.52 131.734 154.012C133.882 148.465 134.956 142.41 134.956 135.848C134.956 129.207 133.843 123.094 131.616 117.508C129.39 111.883 126.245 107.02 122.183 102.918C118.12 98.7773 113.335 95.5742 107.827 93.3086C102.32 91.0039 96.304 89.8516 89.7805 89.8516C83.6477 89.8516 77.886 90.9062 72.4954 93.0156C67.1047 95.0859 62.3391 98.1133 58.1985 102.098L60.1321 103.855Z" fill="white"/>
<path d="M113.901 81.3C131.901 70.95 141.351 66.9 149.901 62.85" stroke="white" stroke-width="2.7"/>
</g>
<path d="M52.1213 182.95C52.3973 183.43 52.6913 183.856 53.0033 184.228C53.3273 184.588 53.6813 184.87 54.0653 185.074C54.4493 185.266 54.8813 185.362 55.3613 185.362C55.9373 185.362 56.4053 185.206 56.7653 184.894C57.1253 184.582 57.3053 184.18 57.3053 183.688C57.3053 183.22 57.1913 182.848 56.9633 182.572C56.7353 182.284 56.4173 182.044 56.0093 181.852C55.6133 181.648 55.1513 181.45 54.6233 181.258C54.3113 181.15 53.9633 181.006 53.5793 180.826C53.1953 180.634 52.8293 180.4 52.4813 180.124C52.1333 179.836 51.8453 179.488 51.6173 179.08C51.3893 178.66 51.2753 178.156 51.2753 177.568C51.2753 176.896 51.4493 176.308 51.7973 175.804C52.1453 175.288 52.6133 174.892 53.2013 174.616C53.8013 174.328 54.4793 174.184 55.2353 174.184C55.9793 174.184 56.6273 174.316 57.1793 174.58C57.7313 174.844 58.1933 175.18 58.5653 175.588C58.9493 175.996 59.2493 176.422 59.4653 176.866L57.7373 177.838C57.5813 177.526 57.3833 177.238 57.1433 176.974C56.9033 176.698 56.6213 176.482 56.2973 176.326C55.9853 176.158 55.6193 176.074 55.1993 176.074C54.6113 176.074 54.1793 176.212 53.9033 176.488C53.6273 176.752 53.4893 177.064 53.4893 177.424C53.4893 177.748 53.5853 178.042 53.7773 178.306C53.9813 178.558 54.2933 178.798 54.7133 179.026C55.1333 179.254 55.6793 179.488 56.3513 179.728C56.7233 179.86 57.0953 180.028 57.4673 180.232C57.8513 180.436 58.1993 180.694 58.5113 181.006C58.8233 181.306 59.0693 181.66 59.2493 182.068C59.4413 182.476 59.5373 182.956 59.5373 183.508C59.5373 184.096 59.4233 184.624 59.1953 185.092C58.9673 185.56 58.6553 185.956 58.2593 186.28C57.8633 186.592 57.4133 186.832 56.9093 187C56.4173 187.18 55.9013 187.27 55.3613 187.27C54.6173 187.27 53.9273 187.126 53.2913 186.838C52.6673 186.538 52.1213 186.142 51.6533 185.65C51.1853 185.158 50.8133 184.624 50.5373 184.048L52.1213 182.95ZM66.8471 180.7C66.8471 181.564 67.0271 182.338 67.3871 183.022C67.7591 183.694 68.2691 184.222 68.9171 184.606C69.5651 184.99 70.3031 185.182 71.1311 185.182C71.9711 185.182 72.7091 184.99 73.3451 184.606C73.9931 184.222 74.4971 183.694 74.8571 183.022C75.2291 182.338 75.4151 181.564 75.4151 180.7C75.4151 179.836 75.2351 179.068 74.8751 178.396C74.5151 177.712 74.0111 177.178 73.3631 176.794C72.7271 176.41 71.9831 176.218 71.1311 176.218C70.3031 176.218 69.5651 176.41 68.9171 176.794C68.2691 177.178 67.7591 177.712 67.3871 178.396C67.0271 179.068 66.8471 179.836 66.8471 180.7ZM64.5971 180.7C64.5971 179.752 64.7591 178.882 65.0831 178.09C65.4071 177.298 65.8631 176.614 66.4511 176.038C67.0511 175.45 67.7471 174.994 68.5391 174.67C69.3431 174.346 70.2071 174.184 71.1311 174.184C72.0791 174.184 72.9491 174.346 73.7411 174.67C74.5331 174.994 75.2231 175.45 75.8111 176.038C76.4111 176.614 76.8731 177.298 77.1971 178.09C77.5211 178.882 77.6831 179.752 77.6831 180.7C77.6831 181.636 77.5211 182.506 77.1971 183.31C76.8731 184.114 76.4171 184.81 75.8291 185.398C75.2411 185.986 74.5451 186.448 73.7411 186.784C72.9491 187.108 72.0791 187.27 71.1311 187.27C70.1951 187.27 69.3251 187.108 68.5211 186.784C67.7171 186.448 67.0211 185.986 66.4331 185.398C65.8571 184.81 65.4071 184.114 65.0831 183.31C64.7591 182.506 64.5971 181.636 64.5971 180.7ZM83.3487 174.4H85.4727V185.092H90.4767V187H83.3487V174.4ZM95.6148 174.4H97.7568V187H95.6148V174.4ZM104.172 174.4H106.332V187H104.172V174.4ZM108.24 187H105.486V185.002H108.186C108.81 185.002 109.386 184.912 109.914 184.732C110.442 184.552 110.898 184.282 111.282 183.922C111.678 183.562 111.984 183.112 112.2 182.572C112.428 182.032 112.542 181.408 112.542 180.7C112.542 179.992 112.428 179.368 112.2 178.828C111.984 178.288 111.678 177.838 111.282 177.478C110.898 177.118 110.442 176.848 109.914 176.668C109.386 176.488 108.81 176.398 108.186 176.398H105.486V174.4H108.24C109.524 174.4 110.652 174.664 111.624 175.192C112.596 175.708 113.352 176.44 113.892 177.388C114.444 178.324 114.72 179.428 114.72 180.7C114.72 181.972 114.444 183.082 113.892 184.03C113.352 184.966 112.596 185.698 111.624 186.226C110.652 186.742 109.524 187 108.24 187ZM135.383 181.654V180.718H140.981C140.981 181.57 140.849 182.386 140.585 183.166C140.321 183.934 139.931 184.618 139.415 185.218C138.899 185.818 138.275 186.292 137.543 186.64C136.811 186.988 135.983 187.162 135.059 187.162C134.159 187.162 133.325 187.006 132.557 186.694C131.801 186.37 131.135 185.92 130.559 185.344C129.995 184.768 129.557 184.084 129.245 183.292C128.933 182.5 128.777 181.636 128.777 180.7C128.777 179.764 128.933 178.9 129.245 178.108C129.557 177.316 129.995 176.632 130.559 176.056C131.135 175.48 131.801 175.036 132.557 174.724C133.325 174.4 134.159 174.238 135.059 174.238C135.839 174.238 136.547 174.346 137.183 174.562C137.831 174.778 138.407 175.09 138.911 175.498C139.415 175.894 139.847 176.374 140.207 176.938L139.487 177.568C139.067 176.872 138.479 176.308 137.723 175.876C136.967 175.444 136.079 175.228 135.059 175.228C134.075 175.228 133.187 175.462 132.395 175.93C131.603 176.398 130.973 177.04 130.505 177.856C130.049 178.672 129.821 179.62 129.821 180.7C129.821 181.768 130.049 182.716 130.505 183.544C130.973 184.36 131.597 185.002 132.377 185.47C133.169 185.938 134.063 186.172 135.059 186.172C135.767 186.172 136.403 186.052 136.967 185.812C137.531 185.572 138.017 185.242 138.425 184.822C138.845 184.402 139.181 183.922 139.433 183.382C139.685 182.842 139.841 182.266 139.901 181.654H135.383ZM149.126 180.988H150.224L154.526 187H153.302L149.126 180.988ZM146.984 174.4H147.974V187H146.984V174.4ZM147.506 175.282V174.4H149.864C150.68 174.4 151.406 174.544 152.042 174.832C152.69 175.12 153.2 175.534 153.572 176.074C153.944 176.614 154.13 177.274 154.13 178.054C154.13 178.822 153.944 179.482 153.572 180.034C153.2 180.586 152.69 181.006 152.042 181.294C151.406 181.57 150.68 181.708 149.864 181.708H147.506V180.826H149.864C150.5 180.826 151.064 180.724 151.556 180.52C152.06 180.304 152.45 179.992 152.726 179.584C153.002 179.164 153.14 178.654 153.14 178.054C153.14 177.454 152.996 176.95 152.708 176.542C152.432 176.134 152.048 175.822 151.556 175.606C151.064 175.39 150.5 175.282 149.864 175.282H147.506ZM160.33 180.7C160.33 181.744 160.552 182.68 160.996 183.508C161.452 184.336 162.07 184.99 162.85 185.47C163.642 185.938 164.542 186.172 165.55 186.172C166.558 186.172 167.452 185.938 168.232 185.47C169.024 184.99 169.642 184.336 170.086 183.508C170.53 182.68 170.752 181.744 170.752 180.7C170.752 179.644 170.53 178.708 170.086 177.892C169.642 177.064 169.024 176.416 168.232 175.948C167.452 175.468 166.558 175.228 165.55 175.228C164.542 175.228 163.642 175.468 162.85 175.948C162.07 176.416 161.452 177.064 160.996 177.892C160.552 178.708 160.33 179.644 160.33 180.7ZM159.286 180.7C159.286 179.776 159.442 178.924 159.754 178.144C160.066 177.352 160.504 176.668 161.068 176.092C161.632 175.504 162.292 175.048 163.048 174.724C163.816 174.4 164.65 174.238 165.55 174.238C166.45 174.238 167.278 174.4 168.034 174.724C168.802 175.048 169.468 175.504 170.032 176.092C170.596 176.668 171.034 177.352 171.346 178.144C171.658 178.924 171.814 179.776 171.814 180.7C171.814 181.624 171.658 182.482 171.346 183.274C171.034 184.054 170.596 184.738 170.032 185.326C169.468 185.902 168.802 186.352 168.034 186.676C167.278 187 166.45 187.162 165.55 187.162C164.65 187.162 163.816 187 163.048 186.676C162.292 186.352 161.632 185.902 161.068 185.326C160.504 184.738 160.066 184.054 159.754 183.274C159.442 182.482 159.286 181.624 159.286 180.7ZM177.631 174.4H178.621V182.932C178.621 183.94 178.885 184.744 179.413 185.344C179.941 185.944 180.691 186.244 181.663 186.244C182.635 186.244 183.385 185.944 183.913 185.344C184.441 184.744 184.705 183.94 184.705 182.932V174.4H185.695V182.932C185.695 183.556 185.605 184.132 185.425 184.66C185.245 185.176 184.981 185.62 184.633 185.992C184.285 186.364 183.859 186.658 183.355 186.874C182.863 187.078 182.299 187.18 181.663 187.18C181.027 187.18 180.457 187.078 179.953 186.874C179.461 186.658 179.041 186.364 178.693 185.992C178.345 185.62 178.081 185.176 177.901 184.66C177.721 184.132 177.631 183.556 177.631 182.932V174.4ZM192.237 174.4H193.227V187H192.237V174.4ZM192.795 175.336V174.4H195.189C195.981 174.4 196.683 174.55 197.295 174.85C197.919 175.15 198.411 175.576 198.771 176.128C199.131 176.68 199.311 177.346 199.311 178.126C199.311 178.894 199.131 179.56 198.771 180.124C198.411 180.688 197.919 181.12 197.295 181.42C196.683 181.708 195.981 181.852 195.189 181.852H192.795V180.916H195.189C196.113 180.916 196.863 180.676 197.439 180.196C198.015 179.716 198.303 179.026 198.303 178.126C198.303 177.214 198.015 176.524 197.439 176.056C196.863 175.576 196.113 175.336 195.189 175.336H192.795Z" fill="white"/>
<defs>
<clipPath id="clip0_62_55">
<rect width="150" height="150" fill="white" transform="translate(50.0006)"/>
</clipPath>
</defs>
</svg>
