<svg width="202" height="35" viewBox="0 0 202 35" fill="none" xmlns="http://www.w3.org/2000/svg">
<g clip-path="url(#clip0_163_4)">
<rect x="0.28" y="0.28" width="34.44" height="34.44" stroke="white" stroke-width="0.56"/>
<path d="M15.3724 19.1151L14.9879 18.5768C14.3727 19.0895 13.7267 19.5253 13.0499 19.8841C12.3732 20.2328 11.6708 20.4994 10.9427 20.684C10.2045 20.8583 9.45593 20.9454 8.69714 20.9454C7.4154 20.9454 6.28234 20.7045 5.29797 20.2225C4.30334 19.7303 3.52917 19.0587 2.97546 18.2076C2.41149 17.3463 2.12951 16.3619 2.12951 15.2545C2.12951 14.0856 2.42175 13.1371 3.00622 12.409C3.59069 11.6708 4.33923 11.0607 5.25183 10.5787C6.16442 10.0865 7.12316 9.63024 8.12805 9.20983C8.87658 8.89196 9.60974 8.5587 10.3275 8.21007C11.0453 7.86144 11.6964 7.46154 12.2809 7.01036C12.8551 6.54894 13.3114 6.00548 13.6498 5.37999C13.9882 4.75451 14.1573 4.00084 14.1573 3.11901C14.1573 2.02184 13.8856 1.05797 13.3422 0.227405C12.7987 -0.603162 12.0399 -1.24916 11.0658 -1.71058C10.0814 -2.17201 8.94836 -2.40272 7.66662 -2.40272C6.81555 -2.40272 5.99011 -2.29506 5.1903 -2.07972C4.38024 -1.87465 3.62146 -1.56703 2.91394 -1.15687L3.2677 -0.557019C3.97522 -0.946667 4.70837 -1.24403 5.46716 -1.44911C6.22595 -1.65419 6.98474 -1.75673 7.74353 -1.75673C8.8612 -1.75673 9.8507 -1.55165 10.712 -1.14149C11.5631 -0.731335 12.2347 -0.157117 12.7269 0.581165C13.2191 1.30919 13.4652 2.15514 13.4652 3.11901C13.4652 4.15465 13.1935 5.00573 12.65 5.67223C12.0963 6.33873 11.3888 6.9027 10.5275 7.36412C9.65588 7.8153 8.73816 8.24596 7.77429 8.65612C6.99499 8.98424 6.23107 9.33287 5.48254 9.70202C4.734 10.0712 4.05725 10.5018 3.45227 10.994C2.83703 11.4759 2.34997 12.0604 1.99108 12.7474C1.62194 13.4242 1.43737 14.2496 1.43737 15.2237C1.43737 16.4645 1.74499 17.5668 2.36022 18.5306C2.97546 19.4842 3.82653 20.2328 4.91345 20.7762C5.99011 21.3197 7.23083 21.5914 8.63562 21.5914C9.84558 21.5914 11.0299 21.3812 12.1886 20.9608C13.337 20.5301 14.3983 19.9149 15.3724 19.1151Z" fill="white"/>
<path d="M32.3383 -3.4704C31.4359 -4.3454 30.3923 -5.01076 29.2074 -5.46649C28.0225 -5.93133 26.7556 -6.16376 25.4066 -6.16376C23.9756 -6.16376 22.654 -5.91311 21.4418 -5.4118C20.2387 -4.9105 19.1905 -4.20412 18.2972 -3.29266C17.4131 -2.3812 16.725 -1.30568 16.2328 -0.0660992C15.7406 1.16437 15.4945 2.51333 15.4945 3.98078C15.4945 5.42088 15.7315 6.75161 16.2054 7.97296C16.6794 9.19432 17.3402 10.2562 18.1879 11.1585C19.0446 12.0609 20.0472 12.7627 21.1957 13.264C22.3532 13.7653 23.6156 14.0159 24.9828 14.0159C26.3226 14.0159 27.5713 13.7744 28.7289 13.2913C29.8956 12.8083 30.9164 12.1338 31.7914 11.2679C32.6755 10.3929 33.3637 9.3675 33.8558 8.19171C34.348 7.00682 34.5941 5.7171 34.5941 4.32257H25.5707V3.74835H35.2094L35.223 3.92609C35.223 5.48468 34.9724 6.91567 34.4711 8.21906C33.9789 9.51333 33.2816 10.639 32.3793 11.596C31.4769 12.5439 30.406 13.2822 29.1664 13.8109C27.9359 14.3304 26.5824 14.5902 25.1058 14.5902C23.6293 14.5902 22.2666 14.3304 21.0179 13.8109C19.7692 13.2822 18.6846 12.5439 17.764 11.596C16.8526 10.639 16.1416 9.51789 15.6312 8.23273C15.1299 6.93846 14.8793 5.5257 14.8793 3.99445C14.8793 2.44497 15.139 1.01854 15.6586 -0.284849C16.1781 -1.59735 16.9118 -2.73212 17.8597 -3.68915C18.8077 -4.65529 19.9242 -5.40269 21.2094 -5.93133C22.4945 -6.46909 23.8982 -6.73798 25.4203 -6.73798C26.8513 -6.73798 28.1957 -6.49188 29.4535 -5.99969C30.7113 -5.51662 31.8233 -4.81024 32.7894 -3.88055L32.3383 -3.4704Z" fill="white"/>
<path d="M34.6224 35.1451L34.2379 34.6068C33.6227 35.1195 32.9767 35.5553 32.2999 35.9141C31.6232 36.2628 30.9208 36.5294 30.1927 36.7139C29.4545 36.8883 28.7059 36.9754 27.9471 36.9754C26.6654 36.9754 25.5323 36.7345 24.548 36.2525C23.5533 35.7603 22.7792 35.0887 22.2255 34.2376C21.6615 33.3763 21.3795 32.3919 21.3795 31.2845C21.3795 30.1156 21.6717 29.1671 22.2562 28.439C22.8407 27.7008 23.5892 27.0907 24.5018 26.6087C25.4144 26.1165 26.3732 25.6602 27.378 25.2398C28.1266 24.922 28.8597 24.5887 29.5775 24.2401C30.2953 23.8914 30.9464 23.4915 31.5309 23.0404C32.1051 22.5789 32.5614 22.0355 32.8998 21.41C33.2382 20.7845 33.4073 20.0308 33.4073 19.149C33.4073 18.0518 33.1356 17.088 32.5922 16.2574C32.0487 15.4268 31.2899 14.7808 30.3158 14.3194C29.3314 13.858 28.1984 13.6273 26.9166 13.6273C26.0655 13.6273 25.2401 13.7349 24.4403 13.9503C23.6302 14.1554 22.8715 14.463 22.1639 14.8731L22.5177 15.473C23.2252 15.0833 23.9584 14.786 24.7172 14.5809C25.4759 14.3758 26.2347 14.2733 26.9935 14.2733C28.1112 14.2733 29.1007 14.4783 29.962 14.8885C30.8131 15.2987 31.4847 15.8729 31.9769 16.6112C32.4691 17.3392 32.7152 18.1851 32.7152 19.149C32.7152 20.1846 32.4435 21.0357 31.9 21.7022C31.3463 22.3687 30.6388 22.9327 29.7775 23.3941C28.9059 23.8453 27.9882 24.276 27.0243 24.6861C26.245 25.0142 25.4811 25.3629 24.7325 25.732C23.984 26.1012 23.3072 26.5318 22.7023 27.024C22.087 27.5059 21.6 28.0904 21.2411 28.7774C20.8719 29.4542 20.6874 30.2796 20.6874 31.2537C20.6874 32.4945 20.995 33.5968 21.6102 34.5606C22.2255 35.5142 23.0765 36.2628 24.1634 36.8062C25.2401 37.3497 26.4808 37.6214 27.8856 37.6214C29.0956 37.6214 30.2799 37.4112 31.4386 36.9908C32.587 36.5601 33.6483 35.9449 34.6224 35.1451Z" fill="white"/>
<path d="M2.36413 24.5996C3.26648 23.7246 4.3101 23.0592 5.49499 22.6035C6.67989 22.1387 7.94681 21.9062 9.29577 21.9062C10.7268 21.9062 12.0484 22.1569 13.2606 22.6582C14.4637 23.1595 15.5119 23.8659 16.4051 24.7773C17.2893 25.6888 17.9774 26.7643 18.4696 28.0039C18.9618 29.2344 19.2079 30.5833 19.2079 32.0508C19.2079 33.4909 18.9709 34.8216 18.4969 36.043C18.023 37.2643 17.3622 38.3262 16.5145 39.2285C15.6578 40.1309 14.6551 40.8327 13.5067 41.334C12.3492 41.8353 11.0868 42.0859 9.7196 42.0859C8.37976 42.0859 7.13106 41.8444 5.97351 41.3613C4.80684 40.8783 3.78601 40.2038 2.91101 39.3379C2.02689 38.4629 1.33874 37.4375 0.846553 36.2617C0.354365 35.0768 0.108272 33.7871 0.108272 32.3926H9.13171V31.8184H-0.506963L-0.520635 31.9961C-0.520635 33.5547 -0.269984 34.9857 0.231318 36.2891C0.723506 37.5833 1.42077 38.709 2.32312 39.666C3.22546 40.6139 4.29642 41.3522 5.53601 41.8809C6.76648 42.4004 8.11999 42.6602 9.59655 42.6602C11.0731 42.6602 12.4357 42.4004 13.6844 41.8809C14.9331 41.3522 16.0178 40.6139 16.9384 39.666C17.8498 38.709 18.5607 37.5879 19.0712 36.3027C19.5725 35.0085 19.8231 33.5957 19.8231 32.0645C19.8231 30.515 19.5634 29.0885 19.0438 27.7852C18.5243 26.4727 17.7906 25.3379 16.8426 24.3809C15.8947 23.4147 14.7782 22.6673 13.493 22.1387C12.2079 21.6009 10.8042 21.332 9.2821 21.332C7.85111 21.332 6.50671 21.5781 5.2489 22.0703C3.99108 22.5534 2.87911 23.2598 1.91296 24.1895L2.36413 24.5996Z" fill="white"/>
<path d="M14.9102 18.97C19.1102 16.555 21.3152 15.61 23.3102 14.665" stroke="white" stroke-width="0.63"/>
</g>
<path d="M51.232 20.95C51.508 21.43 51.802 21.856 52.114 22.228C52.438 22.588 52.792 22.87 53.176 23.074C53.56 23.266 53.992 23.362 54.472 23.362C55.048 23.362 55.516 23.206 55.876 22.894C56.236 22.582 56.416 22.18 56.416 21.688C56.416 21.22 56.302 20.848 56.074 20.572C55.846 20.284 55.528 20.044 55.12 19.852C54.724 19.648 54.262 19.45 53.734 19.258C53.422 19.15 53.074 19.006 52.69 18.826C52.306 18.634 51.94 18.4 51.592 18.124C51.244 17.836 50.956 17.488 50.728 17.08C50.5 16.66 50.386 16.156 50.386 15.568C50.386 14.896 50.56 14.308 50.908 13.804C51.256 13.288 51.724 12.892 52.312 12.616C52.912 12.328 53.59 12.184 54.346 12.184C55.09 12.184 55.738 12.316 56.29 12.58C56.842 12.844 57.304 13.18 57.676 13.588C58.06 13.996 58.36 14.422 58.576 14.866L56.848 15.838C56.692 15.526 56.494 15.238 56.254 14.974C56.014 14.698 55.732 14.482 55.408 14.326C55.096 14.158 54.73 14.074 54.31 14.074C53.722 14.074 53.29 14.212 53.014 14.488C52.738 14.752 52.6 15.064 52.6 15.424C52.6 15.748 52.696 16.042 52.888 16.306C53.092 16.558 53.404 16.798 53.824 17.026C54.244 17.254 54.79 17.488 55.462 17.728C55.834 17.86 56.206 18.028 56.578 18.232C56.962 18.436 57.31 18.694 57.622 19.006C57.934 19.306 58.18 19.66 58.36 20.068C58.552 20.476 58.648 20.956 58.648 21.508C58.648 22.096 58.534 22.624 58.306 23.092C58.078 23.56 57.766 23.956 57.37 24.28C56.974 24.592 56.524 24.832 56.02 25C55.528 25.18 55.012 25.27 54.472 25.27C53.728 25.27 53.038 25.126 52.402 24.838C51.778 24.538 51.232 24.142 50.764 23.65C50.296 23.158 49.924 22.624 49.648 22.048L51.232 20.95ZM65.9578 18.7C65.9578 19.564 66.1378 20.338 66.4978 21.022C66.8698 21.694 67.3798 22.222 68.0278 22.606C68.6758 22.99 69.4138 23.182 70.2418 23.182C71.0818 23.182 71.8198 22.99 72.4558 22.606C73.1038 22.222 73.6078 21.694 73.9678 21.022C74.3398 20.338 74.5258 19.564 74.5258 18.7C74.5258 17.836 74.3458 17.068 73.9858 16.396C73.6258 15.712 73.1218 15.178 72.4738 14.794C71.8378 14.41 71.0938 14.218 70.2418 14.218C69.4138 14.218 68.6758 14.41 68.0278 14.794C67.3798 15.178 66.8698 15.712 66.4978 16.396C66.1378 17.068 65.9578 17.836 65.9578 18.7ZM63.7078 18.7C63.7078 17.752 63.8698 16.882 64.1938 16.09C64.5178 15.298 64.9738 14.614 65.5618 14.038C66.1618 13.45 66.8578 12.994 67.6498 12.67C68.4538 12.346 69.3178 12.184 70.2418 12.184C71.1898 12.184 72.0598 12.346 72.8518 12.67C73.6438 12.994 74.3338 13.45 74.9218 14.038C75.5218 14.614 75.9838 15.298 76.3078 16.09C76.6318 16.882 76.7938 17.752 76.7938 18.7C76.7938 19.636 76.6318 20.506 76.3078 21.31C75.9838 22.114 75.5278 22.81 74.9398 23.398C74.3518 23.986 73.6558 24.448 72.8518 24.784C72.0598 25.108 71.1898 25.27 70.2418 25.27C69.3058 25.27 68.4358 25.108 67.6318 24.784C66.8278 24.448 66.1318 23.986 65.5438 23.398C64.9678 22.81 64.5178 22.114 64.1938 21.31C63.8698 20.506 63.7078 19.636 63.7078 18.7ZM82.4595 12.4H84.5835V23.092H89.5875V25H82.4595V12.4ZM94.7255 12.4H96.8675V25H94.7255V12.4ZM103.283 12.4H105.443V25H103.283V12.4ZM107.351 25H104.597V23.002H107.297C107.921 23.002 108.497 22.912 109.025 22.732C109.553 22.552 110.009 22.282 110.393 21.922C110.789 21.562 111.095 21.112 111.311 20.572C111.539 20.032 111.653 19.408 111.653 18.7C111.653 17.992 111.539 17.368 111.311 16.828C111.095 16.288 110.789 15.838 110.393 15.478C110.009 15.118 109.553 14.848 109.025 14.668C108.497 14.488 107.921 14.398 107.297 14.398H104.597V12.4H107.351C108.635 12.4 109.763 12.664 110.735 13.192C111.707 13.708 112.463 14.44 113.003 15.388C113.555 16.324 113.831 17.428 113.831 18.7C113.831 19.972 113.555 21.082 113.003 22.03C112.463 22.966 111.707 23.698 110.735 24.226C109.763 24.742 108.635 25 107.351 25ZM134.494 19.654V18.718H140.092C140.092 19.57 139.96 20.386 139.696 21.166C139.432 21.934 139.042 22.618 138.526 23.218C138.01 23.818 137.386 24.292 136.654 24.64C135.922 24.988 135.094 25.162 134.17 25.162C133.27 25.162 132.436 25.006 131.668 24.694C130.912 24.37 130.246 23.92 129.67 23.344C129.106 22.768 128.668 22.084 128.356 21.292C128.044 20.5 127.888 19.636 127.888 18.7C127.888 17.764 128.044 16.9 128.356 16.108C128.668 15.316 129.106 14.632 129.67 14.056C130.246 13.48 130.912 13.036 131.668 12.724C132.436 12.4 133.27 12.238 134.17 12.238C134.95 12.238 135.658 12.346 136.294 12.562C136.942 12.778 137.518 13.09 138.022 13.498C138.526 13.894 138.958 14.374 139.318 14.938L138.598 15.568C138.178 14.872 137.59 14.308 136.834 13.876C136.078 13.444 135.19 13.228 134.17 13.228C133.186 13.228 132.298 13.462 131.506 13.93C130.714 14.398 130.084 15.04 129.616 15.856C129.16 16.672 128.932 17.62 128.932 18.7C128.932 19.768 129.16 20.716 129.616 21.544C130.084 22.36 130.708 23.002 131.488 23.47C132.28 23.938 133.174 24.172 134.17 24.172C134.878 24.172 135.514 24.052 136.078 23.812C136.642 23.572 137.128 23.242 137.536 22.822C137.956 22.402 138.292 21.922 138.544 21.382C138.796 20.842 138.952 20.266 139.012 19.654H134.494ZM148.237 18.988H149.335L153.637 25H152.413L148.237 18.988ZM146.095 12.4H147.085V25H146.095V12.4ZM146.617 13.282V12.4H148.975C149.791 12.4 150.517 12.544 151.153 12.832C151.801 13.12 152.311 13.534 152.683 14.074C153.055 14.614 153.241 15.274 153.241 16.054C153.241 16.822 153.055 17.482 152.683 18.034C152.311 18.586 151.801 19.006 151.153 19.294C150.517 19.57 149.791 19.708 148.975 19.708H146.617V18.826H148.975C149.611 18.826 150.175 18.724 150.667 18.52C151.171 18.304 151.561 17.992 151.837 17.584C152.113 17.164 152.251 16.654 152.251 16.054C152.251 15.454 152.107 14.95 151.819 14.542C151.543 14.134 151.159 13.822 150.667 13.606C150.175 13.39 149.611 13.282 148.975 13.282H146.617ZM159.441 18.7C159.441 19.744 159.663 20.68 160.107 21.508C160.563 22.336 161.181 22.99 161.961 23.47C162.753 23.938 163.653 24.172 164.661 24.172C165.669 24.172 166.563 23.938 167.343 23.47C168.135 22.99 168.753 22.336 169.197 21.508C169.641 20.68 169.863 19.744 169.863 18.7C169.863 17.644 169.641 16.708 169.197 15.892C168.753 15.064 168.135 14.416 167.343 13.948C166.563 13.468 165.669 13.228 164.661 13.228C163.653 13.228 162.753 13.468 161.961 13.948C161.181 14.416 160.563 15.064 160.107 15.892C159.663 16.708 159.441 17.644 159.441 18.7ZM158.397 18.7C158.397 17.776 158.553 16.924 158.865 16.144C159.177 15.352 159.615 14.668 160.179 14.092C160.743 13.504 161.403 13.048 162.159 12.724C162.927 12.4 163.761 12.238 164.661 12.238C165.561 12.238 166.389 12.4 167.145 12.724C167.913 13.048 168.579 13.504 169.143 14.092C169.707 14.668 170.145 15.352 170.457 16.144C170.769 16.924 170.925 17.776 170.925 18.7C170.925 19.624 170.769 20.482 170.457 21.274C170.145 22.054 169.707 22.738 169.143 23.326C168.579 23.902 167.913 24.352 167.145 24.676C166.389 25 165.561 25.162 164.661 25.162C163.761 25.162 162.927 25 162.159 24.676C161.403 24.352 160.743 23.902 160.179 23.326C159.615 22.738 159.177 22.054 158.865 21.274C158.553 20.482 158.397 19.624 158.397 18.7ZM176.742 12.4H177.732V20.932C177.732 21.94 177.996 22.744 178.524 23.344C179.052 23.944 179.802 24.244 180.774 24.244C181.746 24.244 182.496 23.944 183.024 23.344C183.552 22.744 183.816 21.94 183.816 20.932V12.4H184.806V20.932C184.806 21.556 184.716 22.132 184.536 22.66C184.356 23.176 184.092 23.62 183.744 23.992C183.396 24.364 182.97 24.658 182.466 24.874C181.974 25.078 181.41 25.18 180.774 25.18C180.138 25.18 179.568 25.078 179.064 24.874C178.572 24.658 178.152 24.364 177.804 23.992C177.456 23.62 177.192 23.176 177.012 22.66C176.832 22.132 176.742 21.556 176.742 20.932V12.4ZM191.348 12.4H192.338V25H191.348V12.4ZM191.906 13.336V12.4H194.3C195.092 12.4 195.794 12.55 196.406 12.85C197.03 13.15 197.522 13.576 197.882 14.128C198.242 14.68 198.422 15.346 198.422 16.126C198.422 16.894 198.242 17.56 197.882 18.124C197.522 18.688 197.03 19.12 196.406 19.42C195.794 19.708 195.092 19.852 194.3 19.852H191.906V18.916H194.3C195.224 18.916 195.974 18.676 196.55 18.196C197.126 17.716 197.414 17.026 197.414 16.126C197.414 15.214 197.126 14.524 196.55 14.056C195.974 13.576 195.224 13.336 194.3 13.336H191.906Z" fill="white"/>
<defs>
<clipPath id="clip0_163_4">
<rect width="35" height="35" fill="white"/>
</clipPath>
</defs>
</svg>
